<svg width="1440" height="1773" viewBox="0 0 1440 1773" fill="none" xmlns="http://www.w3.org/2000/svg">
<g clip-path="url(#clip0_2_999)">
<g filter="url(#filter0_f_2_999)">
<rect x="-387.5" y="367.674" width="641" height="287" fill="#504CFF" fill-opacity="0.6"/>
</g>
<g opacity="0.7" filter="url(#filter1_f_2_999)">
<rect x="998.5" y="911.674" width="641" height="287" fill="#854CFF" fill-opacity="0.6"/>
</g>
<path d="M120.594 1810.67L135.282 1770.44H139.926L154.614 1810.67H150.078L146.622 1800.85H128.64L125.13 1810.67H120.594ZM130.044 1796.8H145.11L136.956 1773.68H138.252L130.044 1796.8ZM170.966 1822.55C168.986 1822.55 167.15 1822.25 165.458 1821.64C163.802 1821.02 162.362 1820.18 161.138 1819.1C159.95 1818.05 159.032 1816.83 158.384 1815.43L162.11 1813.43C162.686 1814.8 163.712 1815.98 165.188 1816.99C166.664 1818 168.554 1818.5 170.858 1818.5C172.622 1818.5 174.242 1818.16 175.718 1817.48C177.194 1816.79 178.382 1815.79 179.282 1814.45C180.182 1813.12 180.632 1811.48 180.632 1809.54V1803.11L181.28 1803.71C180.272 1805.8 178.778 1807.42 176.798 1808.57C174.818 1809.68 172.658 1810.24 170.318 1810.24C167.618 1810.24 165.188 1809.59 163.028 1808.3C160.868 1807 159.158 1805.26 157.898 1803.06C156.674 1800.83 156.062 1798.36 156.062 1795.66C156.062 1792.93 156.674 1790.46 157.898 1788.26C159.158 1786.07 160.85 1784.32 162.974 1783.03C165.134 1781.73 167.582 1781.08 170.318 1781.08C172.658 1781.08 174.782 1781.62 176.69 1782.7C178.634 1783.78 180.164 1785.24 181.28 1787.08L180.632 1788.21V1781.73H184.682V1809.54C184.682 1812.02 184.088 1814.24 182.9 1816.18C181.748 1818.16 180.128 1819.71 178.04 1820.83C175.988 1821.98 173.63 1822.55 170.966 1822.55ZM170.534 1806.19C172.406 1806.19 174.098 1805.72 175.61 1804.79C177.122 1803.82 178.328 1802.54 179.228 1800.95C180.164 1799.33 180.632 1797.57 180.632 1795.66C180.632 1793.75 180.164 1792.01 179.228 1790.42C178.328 1788.8 177.122 1787.53 175.61 1786.59C174.098 1785.62 172.406 1785.13 170.534 1785.13C168.626 1785.13 166.898 1785.62 165.35 1786.59C163.802 1787.53 162.578 1788.79 161.678 1790.37C160.814 1791.95 160.382 1793.72 160.382 1795.66C160.382 1797.57 160.814 1799.33 161.678 1800.95C162.578 1802.54 163.784 1803.82 165.296 1804.79C166.844 1805.72 168.59 1806.19 170.534 1806.19ZM205.1 1811.32C202.4 1811.32 199.952 1810.67 197.756 1809.38C195.596 1808.05 193.886 1806.23 192.626 1803.92C191.366 1801.62 190.736 1799.01 190.736 1796.09C190.736 1793.18 191.348 1790.6 192.572 1788.37C193.796 1786.1 195.452 1784.32 197.54 1783.03C199.664 1781.73 202.04 1781.08 204.668 1781.08C206.756 1781.08 208.61 1781.48 210.23 1782.27C211.886 1783.03 213.29 1784.07 214.442 1785.4C215.594 1786.7 216.476 1788.17 217.088 1789.83C217.7 1791.45 218.006 1793.12 218.006 1794.85C218.006 1795.21 217.988 1795.63 217.952 1796.09C217.916 1796.53 217.862 1796.98 217.79 1797.44H193.328V1793.66H215.468L213.524 1795.28C213.848 1793.3 213.614 1791.54 212.822 1789.99C212.066 1788.41 210.968 1787.17 209.528 1786.27C208.088 1785.33 206.468 1784.86 204.668 1784.86C202.868 1784.86 201.194 1785.33 199.646 1786.27C198.134 1787.2 196.946 1788.52 196.082 1790.21C195.218 1791.86 194.876 1793.84 195.056 1796.15C194.876 1798.45 195.236 1800.47 196.136 1802.2C197.072 1803.89 198.332 1805.2 199.916 1806.14C201.536 1807.07 203.264 1807.54 205.1 1807.54C207.224 1807.54 209.006 1807.04 210.446 1806.03C211.886 1805.02 213.056 1803.76 213.956 1802.25L217.412 1804.09C216.836 1805.38 215.954 1806.59 214.766 1807.7C213.578 1808.78 212.156 1809.67 210.5 1810.35C208.88 1811 207.08 1811.32 205.1 1811.32ZM224.066 1810.67V1781.73H228.116V1787.35L227.198 1787.13C227.918 1785.26 229.088 1783.78 230.708 1782.7C232.364 1781.62 234.272 1781.08 236.432 1781.08C238.484 1781.08 240.32 1781.55 241.94 1782.49C243.596 1783.42 244.892 1784.72 245.828 1786.37C246.8 1787.99 247.286 1789.83 247.286 1791.88V1810.67H243.236V1793.45C243.236 1791.68 242.912 1790.19 242.264 1788.97C241.652 1787.74 240.77 1786.81 239.618 1786.16C238.502 1785.47 237.206 1785.13 235.73 1785.13C234.254 1785.13 232.94 1785.47 231.788 1786.16C230.636 1786.81 229.736 1787.76 229.088 1789.02C228.44 1790.24 228.116 1791.72 228.116 1793.45V1810.67H224.066ZM267.172 1811.32C264.328 1811.32 261.826 1810.66 259.666 1809.32C257.506 1807.99 255.814 1806.19 254.59 1803.92C253.366 1801.62 252.754 1799.03 252.754 1796.15C252.754 1793.27 253.366 1790.69 254.59 1788.43C255.814 1786.16 257.506 1784.38 259.666 1783.08C261.826 1781.75 264.328 1781.08 267.172 1781.08C268.972 1781.08 270.664 1781.41 272.248 1782.05C273.832 1782.7 275.236 1783.58 276.46 1784.7C277.684 1785.78 278.602 1787.04 279.214 1788.48L275.542 1790.37C274.822 1788.82 273.724 1787.56 272.248 1786.59C270.772 1785.62 269.08 1785.13 267.172 1785.13C265.264 1785.13 263.536 1785.62 261.988 1786.59C260.476 1787.53 259.27 1788.84 258.37 1790.53C257.506 1792.19 257.074 1794.08 257.074 1796.2C257.074 1798.29 257.506 1800.18 258.37 1801.87C259.27 1803.53 260.476 1804.84 261.988 1805.81C263.536 1806.79 265.264 1807.27 267.172 1807.27C269.08 1807.27 270.754 1806.79 272.194 1805.81C273.67 1804.84 274.786 1803.55 275.542 1801.93L279.214 1803.92C278.602 1805.33 277.684 1806.59 276.46 1807.7C275.236 1808.82 273.832 1809.7 272.248 1810.35C270.664 1811 268.972 1811.32 267.172 1811.32ZM285.834 1822.55C285.258 1822.55 284.664 1822.5 284.052 1822.39C283.476 1822.32 282.9 1822.18 282.324 1821.96V1818.18C282.684 1818.22 283.134 1818.27 283.674 1818.34C284.25 1818.45 284.826 1818.5 285.402 1818.5C287.166 1818.5 288.516 1818.13 289.452 1817.37C290.388 1816.65 291.306 1815.25 292.206 1813.16L294.042 1808.84L293.934 1812.4L281.676 1781.73H286.05L296.094 1807.06H294.96L304.95 1781.73H309.432L296.202 1814.35C295.626 1815.75 294.888 1817.08 293.988 1818.34C293.124 1819.6 292.026 1820.61 290.694 1821.37C289.362 1822.16 287.742 1822.55 285.834 1822.55ZM328.767 1810.67V1774.49H317.643V1770.44H344.103V1774.49H333.087V1810.67H328.767ZM347.76 1810.67V1769.8H351.81V1787.35L350.892 1787.13C351.612 1785.26 352.782 1783.78 354.402 1782.7C356.058 1781.62 357.966 1781.08 360.126 1781.08C362.178 1781.08 364.014 1781.55 365.634 1782.49C367.29 1783.42 368.586 1784.72 369.522 1786.37C370.494 1787.99 370.98 1789.83 370.98 1791.88V1810.67H366.93V1793.45C366.93 1791.68 366.606 1790.19 365.958 1788.97C365.31 1787.74 364.41 1786.81 363.258 1786.16C362.142 1785.47 360.864 1785.13 359.424 1785.13C357.984 1785.13 356.688 1785.47 355.536 1786.16C354.384 1786.81 353.466 1787.76 352.782 1789.02C352.134 1790.24 351.81 1791.72 351.81 1793.45V1810.67H347.76ZM386.005 1811.32C384.169 1811.32 382.531 1810.98 381.091 1810.3C379.651 1809.58 378.517 1808.6 377.689 1807.38C376.861 1806.16 376.447 1804.75 376.447 1803.17C376.447 1801.66 376.771 1800.29 377.419 1799.06C378.067 1797.8 379.075 1796.74 380.443 1795.88C381.811 1795.01 383.557 1794.4 385.681 1794.04L397.021 1792.15V1795.82L386.653 1797.55C384.565 1797.91 383.053 1798.58 382.117 1799.55C381.217 1800.52 380.767 1801.67 380.767 1803.01C380.767 1804.3 381.271 1805.4 382.279 1806.3C383.323 1807.2 384.655 1807.65 386.275 1807.65C388.255 1807.65 389.983 1807.24 391.459 1806.41C392.935 1805.54 394.087 1804.39 394.915 1802.95C395.743 1801.51 396.157 1799.91 396.157 1798.15V1790.8C396.157 1789.07 395.527 1787.67 394.267 1786.59C393.007 1785.51 391.369 1784.97 389.353 1784.97C387.589 1784.97 386.041 1785.42 384.709 1786.32C383.377 1787.18 382.387 1788.32 381.739 1789.72L378.067 1787.72C378.607 1786.5 379.453 1785.38 380.605 1784.38C381.793 1783.37 383.143 1782.58 384.655 1782C386.167 1781.39 387.733 1781.08 389.353 1781.08C391.477 1781.08 393.349 1781.5 394.969 1782.32C396.625 1783.15 397.903 1784.3 398.803 1785.78C399.739 1787.22 400.207 1788.89 400.207 1790.8V1810.67H396.157V1804.9L396.751 1805.49C396.247 1806.57 395.455 1807.56 394.375 1808.46C393.331 1809.32 392.089 1810.03 390.649 1810.57C389.245 1811.07 387.697 1811.32 386.005 1811.32ZM418 1811C415.408 1811 413.41 1810.24 412.006 1808.73C410.602 1807.22 409.9 1805.06 409.9 1802.25V1785.78H404.554V1781.73H405.904C407.128 1781.73 408.1 1781.33 408.82 1780.54C409.54 1779.71 409.9 1778.69 409.9 1777.46V1775.03H413.95V1781.73H420.322V1785.78H413.95V1802.25C413.95 1803.22 414.094 1804.09 414.382 1804.84C414.67 1805.56 415.156 1806.14 415.84 1806.57C416.56 1807 417.514 1807.22 418.702 1807.22C418.99 1807.22 419.332 1807.2 419.728 1807.16C420.124 1807.13 420.466 1807.09 420.754 1807.06V1810.67C420.322 1810.78 419.836 1810.85 419.296 1810.89C418.756 1810.96 418.324 1811 418 1811ZM448.112 1811.32C445.268 1811.32 442.766 1810.66 440.606 1809.32C438.446 1807.99 436.754 1806.19 435.53 1803.92C434.306 1801.62 433.694 1799.03 433.694 1796.15C433.694 1793.27 434.306 1790.69 435.53 1788.43C436.754 1786.16 438.446 1784.38 440.606 1783.08C442.766 1781.75 445.268 1781.08 448.112 1781.08C449.912 1781.08 451.604 1781.41 453.188 1782.05C454.772 1782.7 456.176 1783.58 457.4 1784.7C458.624 1785.78 459.542 1787.04 460.154 1788.48L456.482 1790.37C455.762 1788.82 454.664 1787.56 453.188 1786.59C451.712 1785.62 450.02 1785.13 448.112 1785.13C446.204 1785.13 444.476 1785.62 442.928 1786.59C441.416 1787.53 440.21 1788.84 439.31 1790.53C438.446 1792.19 438.014 1794.08 438.014 1796.2C438.014 1798.29 438.446 1800.18 439.31 1801.87C440.21 1803.53 441.416 1804.84 442.928 1805.81C444.476 1806.79 446.204 1807.27 448.112 1807.27C450.02 1807.27 451.694 1806.79 453.134 1805.81C454.61 1804.84 455.726 1803.55 456.482 1801.93L460.154 1803.92C459.542 1805.33 458.624 1806.59 457.4 1807.7C456.176 1808.82 454.772 1809.7 453.188 1810.35C451.604 1811 449.912 1811.32 448.112 1811.32ZM474.023 1811.32C472.187 1811.32 470.549 1810.98 469.109 1810.3C467.669 1809.58 466.535 1808.6 465.707 1807.38C464.879 1806.16 464.465 1804.75 464.465 1803.17C464.465 1801.66 464.789 1800.29 465.437 1799.06C466.085 1797.8 467.093 1796.74 468.461 1795.88C469.829 1795.01 471.575 1794.4 473.699 1794.04L485.039 1792.15V1795.82L474.671 1797.55C472.583 1797.91 471.071 1798.58 470.135 1799.55C469.235 1800.52 468.785 1801.67 468.785 1803.01C468.785 1804.3 469.289 1805.4 470.297 1806.3C471.341 1807.2 472.673 1807.65 474.293 1807.65C476.273 1807.65 478.001 1807.24 479.477 1806.41C480.953 1805.54 482.105 1804.39 482.933 1802.95C483.761 1801.51 484.175 1799.91 484.175 1798.15V1790.8C484.175 1789.07 483.545 1787.67 482.285 1786.59C481.025 1785.51 479.387 1784.97 477.371 1784.97C475.607 1784.97 474.059 1785.42 472.727 1786.32C471.395 1787.18 470.405 1788.32 469.757 1789.72L466.085 1787.72C466.625 1786.5 467.471 1785.38 468.623 1784.38C469.811 1783.37 471.161 1782.58 472.673 1782C474.185 1781.39 475.751 1781.08 477.371 1781.08C479.495 1781.08 481.367 1781.5 482.987 1782.32C484.643 1783.15 485.921 1784.3 486.821 1785.78C487.757 1787.22 488.225 1788.89 488.225 1790.8V1810.67H484.175V1804.9L484.769 1805.49C484.265 1806.57 483.473 1807.56 482.393 1808.46C481.349 1809.32 480.107 1810.03 478.667 1810.57C477.263 1811.07 475.715 1811.32 474.023 1811.32ZM495.476 1810.67V1781.73H499.526V1787.35L498.608 1787.13C499.328 1785.26 500.498 1783.78 502.118 1782.7C503.774 1781.62 505.682 1781.08 507.842 1781.08C509.894 1781.08 511.73 1781.55 513.35 1782.49C515.006 1783.42 516.302 1784.72 517.238 1786.37C518.21 1787.99 518.696 1789.83 518.696 1791.88V1810.67H514.646V1793.45C514.646 1791.68 514.322 1790.19 513.674 1788.97C513.062 1787.74 512.18 1786.81 511.028 1786.16C509.912 1785.47 508.616 1785.13 507.14 1785.13C505.664 1785.13 504.35 1785.47 503.198 1786.16C502.046 1786.81 501.146 1787.76 500.498 1789.02C499.85 1790.24 499.526 1791.72 499.526 1793.45V1810.67H495.476ZM534.04 1810.67V1770.44H538.36V1788.53H559.96V1770.44H564.28V1810.67H559.96V1792.58H538.36V1810.67H534.04ZM585.304 1811.32C582.604 1811.32 580.156 1810.67 577.96 1809.38C575.8 1808.05 574.09 1806.23 572.83 1803.92C571.57 1801.62 570.94 1799.01 570.94 1796.09C570.94 1793.18 571.552 1790.6 572.776 1788.37C574 1786.1 575.656 1784.32 577.744 1783.03C579.868 1781.73 582.244 1781.08 584.872 1781.08C586.96 1781.08 588.814 1781.48 590.434 1782.27C592.09 1783.03 593.494 1784.07 594.646 1785.4C595.798 1786.7 596.68 1788.17 597.292 1789.83C597.904 1791.45 598.21 1793.12 598.21 1794.85C598.21 1795.21 598.192 1795.63 598.156 1796.09C598.12 1796.53 598.066 1796.98 597.994 1797.44H573.532V1793.66H595.672L593.728 1795.28C594.052 1793.3 593.818 1791.54 593.026 1789.99C592.27 1788.41 591.172 1787.17 589.732 1786.27C588.292 1785.33 586.672 1784.86 584.872 1784.86C583.072 1784.86 581.398 1785.33 579.85 1786.27C578.338 1787.2 577.15 1788.52 576.286 1790.21C575.422 1791.86 575.08 1793.84 575.26 1796.15C575.08 1798.45 575.44 1800.47 576.34 1802.2C577.276 1803.89 578.536 1805.2 580.12 1806.14C581.74 1807.07 583.468 1807.54 585.304 1807.54C587.428 1807.54 589.21 1807.04 590.65 1806.03C592.09 1805.02 593.26 1803.76 594.16 1802.25L597.616 1804.09C597.04 1805.38 596.158 1806.59 594.97 1807.7C593.782 1808.78 592.36 1809.67 590.704 1810.35C589.084 1811 587.284 1811.32 585.304 1811.32ZM604.271 1810.67V1769.8H608.321V1810.67H604.271ZM615.531 1821.47V1781.73H619.581V1788.21L618.933 1787.08C620.085 1785.24 621.615 1783.78 623.523 1782.7C625.467 1781.62 627.681 1781.08 630.165 1781.08C632.901 1781.08 635.331 1781.75 637.455 1783.08C639.615 1784.38 641.307 1786.16 642.531 1788.43C643.791 1790.69 644.421 1793.29 644.421 1796.2C644.421 1799.08 643.791 1801.67 642.531 1803.98C641.307 1806.25 639.615 1808.05 637.455 1809.38C635.331 1810.67 632.901 1811.32 630.165 1811.32C627.681 1811.32 625.431 1810.76 623.415 1809.65C621.435 1808.5 619.941 1806.88 618.933 1804.79L619.581 1804.19V1821.47H615.531ZM629.949 1807.27C631.893 1807.27 633.621 1806.79 635.133 1805.81C636.681 1804.84 637.887 1803.53 638.751 1801.87C639.651 1800.18 640.101 1798.29 640.101 1796.2C640.101 1794.08 639.651 1792.19 638.751 1790.53C637.887 1788.88 636.681 1787.56 635.133 1786.59C633.621 1785.62 631.893 1785.13 629.949 1785.13C628.005 1785.13 626.241 1785.62 624.657 1786.59C623.109 1787.56 621.867 1788.89 620.931 1790.59C620.031 1792.24 619.581 1794.11 619.581 1796.2C619.581 1798.29 620.031 1800.18 620.931 1801.87C621.867 1803.53 623.109 1804.84 624.657 1805.81C626.241 1806.79 628.005 1807.27 629.949 1807.27ZM669.094 1810.67V1791.99L655 1770.44H659.806L672.118 1789.18H670.39L682.648 1770.44H687.454L673.414 1791.99V1810.67H669.094ZM699.304 1811.32C696.568 1811.32 694.084 1810.67 691.852 1809.38C689.62 1808.05 687.838 1806.25 686.506 1803.98C685.21 1801.67 684.562 1799.06 684.562 1796.15C684.562 1793.27 685.21 1790.69 686.506 1788.43C687.802 1786.16 689.548 1784.38 691.744 1783.08C693.976 1781.75 696.496 1781.08 699.304 1781.08C702.112 1781.08 704.614 1781.73 706.81 1783.03C709.042 1784.32 710.788 1786.1 712.048 1788.37C713.344 1790.64 713.992 1793.23 713.992 1796.15C713.992 1799.1 713.326 1801.73 711.994 1804.03C710.662 1806.3 708.88 1808.08 706.648 1809.38C704.452 1810.67 702.004 1811.32 699.304 1811.32ZM699.304 1807.27C701.248 1807.27 702.994 1806.79 704.542 1805.81C706.126 1804.84 707.368 1803.51 708.268 1801.82C709.204 1800.13 709.672 1798.24 709.672 1796.15C709.672 1794.06 709.204 1792.19 708.268 1790.53C707.368 1788.88 706.126 1787.56 704.542 1786.59C702.994 1785.62 701.248 1785.13 699.304 1785.13C697.36 1785.13 695.596 1785.62 694.012 1786.59C692.464 1787.56 691.222 1788.88 690.286 1790.53C689.35 1792.19 688.882 1794.06 688.882 1796.15C688.882 1798.24 689.35 1800.13 690.286 1801.82C691.222 1803.51 692.464 1804.84 694.012 1805.81C695.596 1806.79 697.36 1807.27 699.304 1807.27ZM730.314 1811.32C728.298 1811.32 726.462 1810.85 724.806 1809.92C723.15 1808.95 721.836 1807.61 720.864 1805.92C719.928 1804.19 719.46 1802.21 719.46 1799.98V1781.73H723.51V1799.5C723.51 1801.04 723.816 1802.41 724.428 1803.6C725.076 1804.75 725.958 1805.65 727.074 1806.3C728.226 1806.95 729.54 1807.27 731.016 1807.27C732.492 1807.27 733.806 1806.95 734.958 1806.3C736.11 1805.62 737.01 1804.66 737.658 1803.44C738.306 1802.18 738.63 1800.68 738.63 1798.96V1781.73H742.68V1810.67H738.63V1805.06L739.548 1805.27C738.864 1807.15 737.694 1808.62 736.038 1809.7C734.382 1810.78 732.474 1811.32 730.314 1811.32ZM771.741 1822.55C769.761 1822.55 767.925 1822.25 766.233 1821.64C764.577 1821.02 763.137 1820.18 761.913 1819.1C760.725 1818.05 759.807 1816.83 759.159 1815.43L762.885 1813.43C763.461 1814.8 764.487 1815.98 765.963 1816.99C767.439 1818 769.329 1818.5 771.633 1818.5C773.397 1818.5 775.017 1818.16 776.493 1817.48C777.969 1816.79 779.157 1815.79 780.057 1814.45C780.957 1813.12 781.407 1811.48 781.407 1809.54V1803.11L782.055 1803.71C781.047 1805.8 779.553 1807.42 777.573 1808.57C775.593 1809.68 773.433 1810.24 771.093 1810.24C768.393 1810.24 765.963 1809.59 763.803 1808.3C761.643 1807 759.933 1805.26 758.673 1803.06C757.449 1800.83 756.837 1798.36 756.837 1795.66C756.837 1792.93 757.449 1790.46 758.673 1788.26C759.933 1786.07 761.625 1784.32 763.749 1783.03C765.909 1781.73 768.357 1781.08 771.093 1781.08C773.433 1781.08 775.557 1781.62 777.465 1782.7C779.409 1783.78 780.939 1785.24 782.055 1787.08L781.407 1788.21V1781.73H785.457V1809.54C785.457 1812.02 784.863 1814.24 783.675 1816.18C782.523 1818.16 780.903 1819.71 778.815 1820.83C776.763 1821.98 774.405 1822.55 771.741 1822.55ZM771.309 1806.19C773.181 1806.19 774.873 1805.72 776.385 1804.79C777.897 1803.82 779.103 1802.54 780.003 1800.95C780.939 1799.33 781.407 1797.57 781.407 1795.66C781.407 1793.75 780.939 1792.01 780.003 1790.42C779.103 1788.8 777.897 1787.53 776.385 1786.59C774.873 1785.62 773.181 1785.13 771.309 1785.13C769.401 1785.13 767.673 1785.62 766.125 1786.59C764.577 1787.53 763.353 1788.79 762.453 1790.37C761.589 1791.95 761.157 1793.72 761.157 1795.66C761.157 1797.57 761.589 1799.33 762.453 1800.95C763.353 1802.54 764.559 1803.82 766.071 1804.79C767.619 1805.72 769.365 1806.19 771.309 1806.19ZM792.699 1810.67V1781.73H796.749V1786.48L796.209 1785.78C796.893 1784.41 797.919 1783.33 799.287 1782.54C800.691 1781.75 802.383 1781.35 804.363 1781.35H806.199V1785.4H803.661C801.573 1785.4 799.899 1786.05 798.639 1787.35C797.379 1788.64 796.749 1790.48 796.749 1792.85V1810.67H792.699ZM823.419 1811.32C820.683 1811.32 818.199 1810.67 815.967 1809.38C813.735 1808.05 811.953 1806.25 810.621 1803.98C809.325 1801.67 808.677 1799.06 808.677 1796.15C808.677 1793.27 809.325 1790.69 810.621 1788.43C811.917 1786.16 813.663 1784.38 815.859 1783.08C818.091 1781.75 820.611 1781.08 823.419 1781.08C826.227 1781.08 828.729 1781.73 830.925 1783.03C833.157 1784.32 834.903 1786.1 836.163 1788.37C837.459 1790.64 838.107 1793.23 838.107 1796.15C838.107 1799.1 837.441 1801.73 836.109 1804.03C834.777 1806.3 832.995 1808.08 830.763 1809.38C828.567 1810.67 826.119 1811.32 823.419 1811.32ZM823.419 1807.27C825.363 1807.27 827.109 1806.79 828.657 1805.81C830.241 1804.84 831.483 1803.51 832.383 1801.82C833.319 1800.13 833.787 1798.24 833.787 1796.15C833.787 1794.06 833.319 1792.19 832.383 1790.53C831.483 1788.88 830.241 1787.56 828.657 1786.59C827.109 1785.62 825.363 1785.13 823.419 1785.13C821.475 1785.13 819.711 1785.62 818.127 1786.59C816.579 1787.56 815.337 1788.88 814.401 1790.53C813.465 1792.19 812.997 1794.06 812.997 1796.15C812.997 1798.24 813.465 1800.13 814.401 1801.82C815.337 1803.51 816.579 1804.84 818.127 1805.81C819.711 1806.79 821.475 1807.27 823.419 1807.27ZM850.015 1810.67L840.079 1781.73H844.669L852.877 1807.06H851.257L858.979 1781.73H863.029L870.751 1807.06H869.131L877.393 1781.73H881.929L871.993 1810.67H867.943L860.437 1785.89H861.571L854.065 1810.67H850.015ZM894.284 1822.55C893.708 1822.55 893.114 1822.5 892.502 1822.39C891.926 1822.32 891.35 1822.18 890.774 1821.96V1818.18C891.134 1818.22 891.584 1818.27 892.124 1818.34C892.7 1818.45 893.276 1818.5 893.852 1818.5C895.616 1818.5 896.966 1818.13 897.902 1817.37C898.838 1816.65 899.756 1815.25 900.656 1813.16L902.492 1808.84L902.384 1812.4L890.126 1781.73H894.5L904.544 1807.06H903.41L913.4 1781.73H917.882L904.652 1814.35C904.076 1815.75 903.338 1817.08 902.438 1818.34C901.574 1819.6 900.476 1820.61 899.144 1821.37C897.812 1822.16 896.192 1822.55 894.284 1822.55ZM934.587 1811.32C931.851 1811.32 929.367 1810.67 927.135 1809.38C924.903 1808.05 923.121 1806.25 921.789 1803.98C920.493 1801.67 919.845 1799.06 919.845 1796.15C919.845 1793.27 920.493 1790.69 921.789 1788.43C923.085 1786.16 924.831 1784.38 927.027 1783.08C929.259 1781.75 931.779 1781.08 934.587 1781.08C937.395 1781.08 939.897 1781.73 942.093 1783.03C944.325 1784.32 946.071 1786.1 947.331 1788.37C948.627 1790.64 949.275 1793.23 949.275 1796.15C949.275 1799.1 948.609 1801.73 947.277 1804.03C945.945 1806.3 944.163 1808.08 941.931 1809.38C939.735 1810.67 937.287 1811.32 934.587 1811.32ZM934.587 1807.27C936.531 1807.27 938.277 1806.79 939.825 1805.81C941.409 1804.84 942.651 1803.51 943.551 1801.82C944.487 1800.13 944.955 1798.24 944.955 1796.15C944.955 1794.06 944.487 1792.19 943.551 1790.53C942.651 1788.88 941.409 1787.56 939.825 1786.59C938.277 1785.62 936.531 1785.13 934.587 1785.13C932.643 1785.13 930.879 1785.62 929.295 1786.59C927.747 1787.56 926.505 1788.88 925.569 1790.53C924.633 1792.19 924.165 1794.06 924.165 1796.15C924.165 1798.24 924.633 1800.13 925.569 1801.82C926.505 1803.51 927.747 1804.84 929.295 1805.81C930.879 1806.79 932.643 1807.27 934.587 1807.27ZM965.598 1811.32C963.582 1811.32 961.746 1810.85 960.09 1809.92C958.434 1808.95 957.12 1807.61 956.148 1805.92C955.212 1804.19 954.744 1802.21 954.744 1799.98V1781.73H958.794V1799.5C958.794 1801.04 959.1 1802.41 959.712 1803.6C960.36 1804.75 961.242 1805.65 962.358 1806.3C963.51 1806.95 964.824 1807.27 966.3 1807.27C967.776 1807.27 969.09 1806.95 970.242 1806.3C971.394 1805.62 972.294 1804.66 972.942 1803.44C973.59 1802.18 973.914 1800.68 973.914 1798.96V1781.73H977.964V1810.67H973.914V1805.06L974.832 1805.27C974.148 1807.15 972.978 1808.62 971.322 1809.7C969.666 1810.78 967.758 1811.32 965.598 1811.32ZM985.213 1810.67V1781.73H989.263V1786.48L988.723 1785.78C989.407 1784.41 990.433 1783.33 991.801 1782.54C993.205 1781.75 994.897 1781.35 996.877 1781.35H998.713V1785.4H996.175C994.087 1785.4 992.413 1786.05 991.153 1787.35C989.893 1788.64 989.263 1790.48 989.263 1792.85V1810.67H985.213ZM124.752 1885.67V1845.44H141.654C143.922 1845.44 145.884 1845.88 147.54 1846.74C149.232 1847.57 150.528 1848.74 151.428 1850.25C152.364 1851.76 152.832 1853.53 152.832 1855.54C152.832 1857.63 152.31 1859.48 151.266 1861.1C150.258 1862.69 148.8 1863.89 146.892 1864.72L146.838 1863.43C148.422 1864 149.772 1864.81 150.888 1865.86C152.04 1866.9 152.922 1868.12 153.534 1869.53C154.146 1870.9 154.452 1872.37 154.452 1873.96C154.452 1877.56 153.3 1880.42 150.996 1882.54C148.728 1884.63 145.632 1885.67 141.708 1885.67H124.752ZM129.072 1881.62H141.708C144.264 1881.62 146.298 1880.96 147.81 1879.63C149.358 1878.26 150.132 1876.39 150.132 1874.01C150.132 1871.67 149.358 1869.82 147.81 1868.45C146.298 1867.04 144.264 1866.34 141.708 1866.34H129.072V1881.62ZM129.072 1862.45H141.33C143.49 1862.45 145.218 1861.82 146.514 1860.56C147.846 1859.3 148.512 1857.68 148.512 1855.7C148.512 1853.69 147.846 1852.16 146.514 1851.11C145.218 1850.03 143.49 1849.49 141.33 1849.49H129.072V1862.45ZM170.779 1886.32C168.763 1886.32 166.927 1885.85 165.271 1884.92C163.615 1883.95 162.301 1882.61 161.329 1880.92C160.393 1879.19 159.925 1877.21 159.925 1874.98V1856.73H163.975V1874.5C163.975 1876.04 164.281 1877.41 164.893 1878.6C165.541 1879.75 166.423 1880.65 167.539 1881.3C168.691 1881.95 170.005 1882.27 171.481 1882.27C172.957 1882.27 174.271 1881.95 175.423 1881.3C176.575 1880.62 177.475 1879.66 178.123 1878.44C178.771 1877.18 179.095 1875.68 179.095 1873.96V1856.73H183.145V1885.67H179.095V1880.06L180.013 1880.27C179.329 1882.15 178.159 1883.62 176.503 1884.7C174.847 1885.78 172.939 1886.32 170.779 1886.32ZM200.438 1886.32C197.666 1886.32 195.236 1885.62 193.148 1884.22C191.06 1882.81 189.548 1880.9 188.612 1878.49L192.014 1876.87C192.842 1878.64 193.994 1880.04 195.47 1881.08C196.982 1882.13 198.638 1882.65 200.438 1882.65C202.166 1882.65 203.624 1882.24 204.812 1881.41C206 1880.54 206.594 1879.43 206.594 1878.06C206.594 1877.05 206.306 1876.26 205.73 1875.68C205.154 1875.07 204.488 1874.6 203.732 1874.28C202.976 1873.96 202.31 1873.72 201.734 1873.58L197.576 1872.39C194.912 1871.63 192.986 1870.57 191.798 1869.2C190.61 1867.84 190.016 1866.25 190.016 1864.45C190.016 1862.76 190.448 1861.28 191.312 1860.02C192.176 1858.76 193.346 1857.79 194.822 1857.11C196.298 1856.42 197.936 1856.08 199.736 1856.08C202.184 1856.08 204.398 1856.73 206.378 1858.03C208.394 1859.29 209.816 1861.05 210.644 1863.32L207.188 1864.94C206.468 1863.32 205.424 1862.06 204.056 1861.16C202.724 1860.22 201.23 1859.75 199.574 1859.75C197.954 1859.75 196.658 1860.17 195.686 1861C194.714 1861.82 194.228 1862.87 194.228 1864.13C194.228 1865.1 194.48 1865.87 194.984 1866.45C195.488 1867.03 196.064 1867.46 196.712 1867.75C197.396 1868.03 197.99 1868.25 198.494 1868.39L203.3 1869.8C205.64 1870.48 207.458 1871.54 208.754 1872.98C210.086 1874.42 210.752 1876.12 210.752 1878.06C210.752 1879.64 210.302 1881.07 209.402 1882.33C208.538 1883.59 207.332 1884.58 205.784 1885.3C204.236 1885.98 202.454 1886.32 200.438 1886.32ZM216.789 1885.67V1856.73H220.839V1885.67H216.789ZM216.789 1851.38V1845.44H220.839V1851.38H216.789ZM228.049 1885.67V1856.73H232.099V1862.35L231.181 1862.13C231.901 1860.26 233.071 1858.78 234.691 1857.7C236.347 1856.62 238.255 1856.08 240.415 1856.08C242.467 1856.08 244.303 1856.55 245.923 1857.49C247.579 1858.42 248.875 1859.72 249.811 1861.37C250.783 1862.99 251.269 1864.83 251.269 1866.88V1885.67H247.219V1868.45C247.219 1866.68 246.895 1865.19 246.247 1863.97C245.635 1862.74 244.753 1861.81 243.601 1861.16C242.485 1860.47 241.189 1860.13 239.713 1860.13C238.237 1860.13 236.923 1860.47 235.771 1861.16C234.619 1861.81 233.719 1862.76 233.071 1864.02C232.423 1865.24 232.099 1866.72 232.099 1868.45V1885.67H228.049ZM271.1 1886.32C268.4 1886.32 265.952 1885.67 263.756 1884.38C261.596 1883.05 259.886 1881.23 258.626 1878.92C257.366 1876.62 256.736 1874.01 256.736 1871.09C256.736 1868.18 257.348 1865.6 258.572 1863.37C259.796 1861.1 261.452 1859.32 263.54 1858.03C265.664 1856.73 268.04 1856.08 270.668 1856.08C272.756 1856.08 274.61 1856.48 276.23 1857.27C277.886 1858.03 279.29 1859.07 280.442 1860.4C281.594 1861.7 282.476 1863.17 283.088 1864.83C283.7 1866.45 284.006 1868.12 284.006 1869.85C284.006 1870.21 283.988 1870.63 283.952 1871.09C283.916 1871.53 283.862 1871.98 283.79 1872.44H259.328V1868.66H281.468L279.524 1870.28C279.848 1868.3 279.614 1866.54 278.822 1864.99C278.066 1863.41 276.968 1862.17 275.528 1861.27C274.088 1860.33 272.468 1859.86 270.668 1859.86C268.868 1859.86 267.194 1860.33 265.646 1861.27C264.134 1862.2 262.946 1863.52 262.082 1865.21C261.218 1866.86 260.876 1868.84 261.056 1871.15C260.876 1873.45 261.236 1875.47 262.136 1877.2C263.072 1878.89 264.332 1880.2 265.916 1881.14C267.536 1882.07 269.264 1882.54 271.1 1882.54C273.224 1882.54 275.006 1882.04 276.446 1881.03C277.886 1880.02 279.056 1878.76 279.956 1877.25L283.412 1879.09C282.836 1880.38 281.954 1881.59 280.766 1882.7C279.578 1883.78 278.156 1884.67 276.5 1885.35C274.88 1886 273.08 1886.32 271.1 1886.32ZM300.111 1886.32C297.339 1886.32 294.909 1885.62 292.821 1884.22C290.733 1882.81 289.221 1880.9 288.285 1878.49L291.687 1876.87C292.515 1878.64 293.667 1880.04 295.143 1881.08C296.655 1882.13 298.311 1882.65 300.111 1882.65C301.839 1882.65 303.297 1882.24 304.485 1881.41C305.673 1880.54 306.267 1879.43 306.267 1878.06C306.267 1877.05 305.979 1876.26 305.403 1875.68C304.827 1875.07 304.161 1874.6 303.405 1874.28C302.649 1873.96 301.983 1873.72 301.407 1873.58L297.249 1872.39C294.585 1871.63 292.659 1870.57 291.471 1869.2C290.283 1867.84 289.689 1866.25 289.689 1864.45C289.689 1862.76 290.121 1861.28 290.985 1860.02C291.849 1858.76 293.019 1857.79 294.495 1857.11C295.971 1856.42 297.609 1856.08 299.409 1856.08C301.857 1856.08 304.071 1856.73 306.051 1858.03C308.067 1859.29 309.489 1861.05 310.317 1863.32L306.861 1864.94C306.141 1863.32 305.097 1862.06 303.729 1861.16C302.397 1860.22 300.903 1859.75 299.247 1859.75C297.627 1859.75 296.331 1860.17 295.359 1861C294.387 1861.82 293.901 1862.87 293.901 1864.13C293.901 1865.1 294.153 1865.87 294.657 1866.45C295.161 1867.03 295.737 1867.46 296.385 1867.75C297.069 1868.03 297.663 1868.25 298.167 1868.39L302.973 1869.8C305.313 1870.48 307.131 1871.54 308.427 1872.98C309.759 1874.42 310.425 1876.12 310.425 1878.06C310.425 1879.64 309.975 1881.07 309.075 1882.33C308.211 1883.59 307.005 1884.58 305.457 1885.3C303.909 1885.98 302.127 1886.32 300.111 1886.32ZM326.505 1886.32C323.733 1886.32 321.303 1885.62 319.215 1884.22C317.127 1882.81 315.615 1880.9 314.679 1878.49L318.081 1876.87C318.909 1878.64 320.061 1880.04 321.537 1881.08C323.049 1882.13 324.705 1882.65 326.505 1882.65C328.233 1882.65 329.691 1882.24 330.879 1881.41C332.067 1880.54 332.661 1879.43 332.661 1878.06C332.661 1877.05 332.373 1876.26 331.797 1875.68C331.221 1875.07 330.555 1874.6 329.799 1874.28C329.043 1873.96 328.377 1873.72 327.801 1873.58L323.643 1872.39C320.979 1871.63 319.053 1870.57 317.865 1869.2C316.677 1867.84 316.083 1866.25 316.083 1864.45C316.083 1862.76 316.515 1861.28 317.379 1860.02C318.243 1858.76 319.413 1857.79 320.889 1857.11C322.365 1856.42 324.003 1856.08 325.803 1856.08C328.251 1856.08 330.465 1856.73 332.445 1858.03C334.461 1859.29 335.883 1861.05 336.711 1863.32L333.255 1864.94C332.535 1863.32 331.491 1862.06 330.123 1861.16C328.791 1860.22 327.297 1859.75 325.641 1859.75C324.021 1859.75 322.725 1860.17 321.753 1861C320.781 1861.82 320.295 1862.87 320.295 1864.13C320.295 1865.1 320.547 1865.87 321.051 1866.45C321.555 1867.03 322.131 1867.46 322.779 1867.75C323.463 1868.03 324.057 1868.25 324.561 1868.39L329.367 1869.8C331.707 1870.48 333.525 1871.54 334.821 1872.98C336.153 1874.42 336.819 1876.12 336.819 1878.06C336.819 1879.64 336.369 1881.07 335.469 1882.33C334.605 1883.59 333.399 1884.58 331.851 1885.3C330.303 1885.98 328.521 1886.32 326.505 1886.32ZM351.546 1885.67V1845.44H364.776C368.772 1845.44 372.246 1846.27 375.198 1847.93C378.15 1849.55 380.436 1851.87 382.056 1854.89C383.676 1857.88 384.486 1861.43 384.486 1865.53C384.486 1869.6 383.676 1873.15 382.056 1876.17C380.436 1879.19 378.15 1881.53 375.198 1883.19C372.246 1884.85 368.772 1885.67 364.776 1885.67H351.546ZM355.866 1881.62H364.776C367.872 1881.62 370.554 1880.98 372.822 1879.68C375.09 1878.35 376.836 1876.48 378.06 1874.06C379.32 1871.65 379.95 1868.81 379.95 1865.53C379.95 1862.26 379.32 1859.43 378.06 1857.05C376.8 1854.64 375.036 1852.79 372.768 1851.49C370.5 1850.16 367.836 1849.49 364.776 1849.49H355.866V1881.62ZM389.95 1885.67V1856.73H394V1885.67H389.95ZM389.95 1851.38V1845.44H394V1851.38H389.95ZM414.926 1897.55C412.946 1897.55 411.11 1897.25 409.418 1896.64C407.762 1896.02 406.322 1895.18 405.098 1894.1C403.91 1893.05 402.992 1891.83 402.344 1890.43L406.07 1888.43C406.646 1889.8 407.672 1890.98 409.148 1891.99C410.624 1893 412.514 1893.5 414.818 1893.5C416.582 1893.5 418.202 1893.16 419.678 1892.48C421.154 1891.79 422.342 1890.79 423.242 1889.45C424.142 1888.12 424.592 1886.48 424.592 1884.54V1878.11L425.24 1878.71C424.232 1880.8 422.738 1882.42 420.758 1883.57C418.778 1884.68 416.618 1885.24 414.278 1885.24C411.578 1885.24 409.148 1884.59 406.988 1883.3C404.828 1882 403.118 1880.26 401.858 1878.06C400.634 1875.83 400.022 1873.36 400.022 1870.66C400.022 1867.93 400.634 1865.46 401.858 1863.26C403.118 1861.07 404.81 1859.32 406.934 1858.03C409.094 1856.73 411.542 1856.08 414.278 1856.08C416.618 1856.08 418.742 1856.62 420.65 1857.7C422.594 1858.78 424.124 1860.24 425.24 1862.08L424.592 1863.21V1856.73H428.642V1884.54C428.642 1887.02 428.048 1889.24 426.86 1891.18C425.708 1893.16 424.088 1894.71 422 1895.83C419.948 1896.98 417.59 1897.55 414.926 1897.55ZM414.494 1881.19C416.366 1881.19 418.058 1880.72 419.57 1879.79C421.082 1878.82 422.288 1877.54 423.188 1875.95C424.124 1874.33 424.592 1872.57 424.592 1870.66C424.592 1868.75 424.124 1867.01 423.188 1865.42C422.288 1863.8 421.082 1862.53 419.57 1861.59C418.058 1860.62 416.366 1860.13 414.494 1860.13C412.586 1860.13 410.858 1860.62 409.31 1861.59C407.762 1862.53 406.538 1863.79 405.638 1865.37C404.774 1866.95 404.342 1868.72 404.342 1870.66C404.342 1872.57 404.774 1874.33 405.638 1875.95C406.538 1877.54 407.744 1878.82 409.256 1879.79C410.804 1880.72 412.55 1881.19 414.494 1881.19ZM435.884 1885.67V1856.73H439.934V1885.67H435.884ZM435.884 1851.38V1845.44H439.934V1851.38H435.884ZM458.213 1886C455.621 1886 453.623 1885.24 452.219 1883.73C450.815 1882.22 450.113 1880.06 450.113 1877.25V1860.78H444.767V1856.73H446.117C447.341 1856.73 448.313 1856.33 449.033 1855.54C449.753 1854.71 450.113 1853.69 450.113 1852.46V1850.03H454.163V1856.73H460.535V1860.78H454.163V1877.25C454.163 1878.22 454.307 1879.09 454.595 1879.84C454.883 1880.56 455.369 1881.14 456.053 1881.57C456.773 1882 457.727 1882.22 458.915 1882.22C459.203 1882.22 459.545 1882.2 459.941 1882.16C460.337 1882.13 460.679 1882.09 460.967 1882.06V1885.67C460.535 1885.78 460.049 1885.85 459.509 1885.89C458.969 1885.96 458.537 1886 458.213 1886ZM474.842 1886.32C473.006 1886.32 471.368 1885.98 469.928 1885.3C468.488 1884.58 467.354 1883.6 466.526 1882.38C465.698 1881.16 465.284 1879.75 465.284 1878.17C465.284 1876.66 465.608 1875.29 466.256 1874.06C466.904 1872.8 467.912 1871.74 469.28 1870.88C470.648 1870.01 472.394 1869.4 474.518 1869.04L485.858 1867.15V1870.82L475.49 1872.55C473.402 1872.91 471.89 1873.58 470.954 1874.55C470.054 1875.52 469.604 1876.67 469.604 1878.01C469.604 1879.3 470.108 1880.4 471.116 1881.3C472.16 1882.2 473.492 1882.65 475.112 1882.65C477.092 1882.65 478.82 1882.24 480.296 1881.41C481.772 1880.54 482.924 1879.39 483.752 1877.95C484.58 1876.51 484.994 1874.91 484.994 1873.15V1865.8C484.994 1864.07 484.364 1862.67 483.104 1861.59C481.844 1860.51 480.206 1859.97 478.19 1859.97C476.426 1859.97 474.878 1860.42 473.546 1861.32C472.214 1862.18 471.224 1863.32 470.576 1864.72L466.904 1862.72C467.444 1861.5 468.29 1860.38 469.442 1859.38C470.63 1858.37 471.98 1857.58 473.492 1857C475.004 1856.39 476.57 1856.08 478.19 1856.08C480.314 1856.08 482.186 1856.5 483.806 1857.32C485.462 1858.15 486.74 1859.3 487.64 1860.78C488.576 1862.22 489.044 1863.89 489.044 1865.8V1885.67H484.994V1879.9L485.588 1880.49C485.084 1881.57 484.292 1882.56 483.212 1883.46C482.168 1884.32 480.926 1885.03 479.486 1885.57C478.082 1886.07 476.534 1886.32 474.842 1886.32ZM496.294 1885.67V1844.8H500.344V1885.67H496.294ZM507.554 1885.67V1844.8H511.604V1885.67H507.554ZM519.408 1897.55C518.832 1897.55 518.238 1897.5 517.626 1897.39C517.05 1897.32 516.474 1897.18 515.898 1896.96V1893.18C516.258 1893.22 516.708 1893.27 517.248 1893.34C517.824 1893.45 518.4 1893.5 518.976 1893.5C520.74 1893.5 522.09 1893.13 523.026 1892.37C523.962 1891.65 524.88 1890.25 525.78 1888.16L527.616 1883.84L527.508 1887.4L515.25 1856.73H519.624L529.668 1882.06H528.534L538.524 1856.73H543.006L529.776 1889.35C529.2 1890.75 528.462 1892.08 527.562 1893.34C526.698 1894.6 525.6 1895.61 524.268 1896.37C522.936 1897.16 521.316 1897.55 519.408 1897.55Z" fill="url(#paint0_linear_2_999)"/>
<g filter="url(#filter2_f_2_999)">
<rect x="642.328" y="1334.54" width="155.175" height="82.76" fill="url(#paint1_linear_2_999)"/>
</g>
</g>
<defs>
<filter id="filter0_f_2_999" x="-687.5" y="67.6738" width="1241" height="887" filterUnits="userSpaceOnUse" color-interpolation-filters="sRGB">
<feFlood flood-opacity="0" result="BackgroundImageFix"/>
<feBlend mode="normal" in="SourceGraphic" in2="BackgroundImageFix" result="shape"/>
<feGaussianBlur stdDeviation="150" result="effect1_foregroundBlur_2_999"/>
</filter>
<filter id="filter1_f_2_999" x="698.5" y="611.674" width="1241" height="887" filterUnits="userSpaceOnUse" color-interpolation-filters="sRGB">
<feFlood flood-opacity="0" result="BackgroundImageFix"/>
<feBlend mode="normal" in="SourceGraphic" in2="BackgroundImageFix" result="shape"/>
<feGaussianBlur stdDeviation="150" result="effect1_foregroundBlur_2_999"/>
</filter>
<filter id="filter2_f_2_999" x="628.88" y="1321.09" width="182.072" height="109.657" filterUnits="userSpaceOnUse" color-interpolation-filters="sRGB">
<feFlood flood-opacity="0" result="BackgroundImageFix"/>
<feBlend mode="normal" in="SourceGraphic" in2="BackgroundImageFix" result="shape"/>
<feGaussianBlur stdDeviation="6.72425" result="effect1_foregroundBlur_2_999"/>
</filter>
<linearGradient id="paint0_linear_2_999" x1="134.113" y1="1786.47" x2="1233.32" y2="1947.9" gradientUnits="userSpaceOnUse">
<stop stop-color="#9795FF"/>
<stop offset="0.416677" stop-color="white"/>
<stop offset="0.594453" stop-color="white"/>
<stop offset="1" stop-color="#BE9FFF"/>
</linearGradient>
<linearGradient id="paint1_linear_2_999" x1="642.328" y1="1375.92" x2="797.503" y2="1375.92" gradientUnits="userSpaceOnUse">
<stop stop-color="#0DAA6E"/>
<stop offset="1" stop-color="#1E3034"/>
</linearGradient>
<clipPath id="clip0_2_999">
<rect width="1440" height="1772" fill="white" transform="translate(0 0.673828)"/>
</clipPath>
</defs>
</svg>
