<svg width="45" height="34" viewBox="0 0 45 34" fill="none" xmlns="http://www.w3.org/2000/svg">
<path d="M19.8148 23.7479C19.8261 28.7873 16.3644 32.6128 11.0837 32.6245C5.80305 32.6363 1.26721 28.3706 1.25018 20.7351C1.22907 11.2671 8.30223 3.15776 17.5023 1.61015L17.5149 7.26038C12.2366 8.34111 8.32232 12.1676 8.3322 16.5961C9.23609 15.9833 10.4421 15.5225 12.4035 15.5181C16.3263 15.5093 19.8029 18.4031 19.8148 23.7479ZM44.2569 23.6934C44.2681 28.7328 40.6556 32.5586 35.3749 32.5704C30.2451 32.5818 25.5584 28.3164 25.5413 20.6809C25.5202 11.213 32.5934 3.10359 41.9444 1.55564L41.957 7.20587C36.6786 8.2866 32.7644 12.1131 32.7739 16.3889C33.6778 15.7761 35.035 15.4676 36.8455 15.4636C40.7683 15.4548 44.245 18.3486 44.2569 23.6934Z" fill="white" fill-opacity="0.2" stroke="url(#paint0_linear_2_1417)"/>
<defs>
<linearGradient id="paint0_linear_2_1417" x1="1.20873" y1="2.14648" x2="47.7777" y2="33.0427" gradientUnits="userSpaceOnUse">
<stop stop-color="white"/>
<stop offset="0.294339" stop-color="white" stop-opacity="0"/>
</linearGradient>
</defs>
</svg>
