<svg width="116" height="115" viewBox="0 0 116 115" fill="none" xmlns="http://www.w3.org/2000/svg">
<path d="M50.6232 101.925C51.194 102.018 51.695 102.211 52.1261 102.504C52.5572 102.796 52.9041 103.15 53.167 103.564C53.4285 103.986 53.5917 104.429 53.6566 104.894L52.7354 105.078C52.6256 104.433 52.3757 103.914 51.9857 103.521C51.5944 103.135 51.0932 102.893 50.4822 102.794C50.0962 102.731 49.7488 102.736 49.4397 102.81C49.1213 102.89 48.8635 103.03 48.6661 103.229C48.4687 103.428 48.3459 103.676 48.2976 103.974C48.2258 104.416 48.2909 104.777 48.4929 105.058C48.6949 105.338 49.0106 105.579 49.44 105.781L50.9777 106.526C51.5829 106.814 52.0231 107.203 52.2983 107.693C52.5655 108.182 52.654 108.704 52.5639 109.259C52.4869 109.733 52.3024 110.133 52.0105 110.456C51.7172 110.788 51.3526 111.026 50.9167 111.17C50.4727 111.313 49.9934 111.342 49.4788 111.258C48.9401 111.171 48.474 110.992 48.0805 110.722C47.6777 110.458 47.3536 110.142 47.1084 109.772C46.8631 109.402 46.7082 109.009 46.6435 108.595L47.5426 108.394C47.6494 108.956 47.8856 109.407 48.2512 109.747C48.6089 110.086 49.061 110.299 49.6078 110.388C49.9535 110.444 50.2688 110.434 50.5537 110.356C50.8306 110.277 51.0597 110.137 51.241 109.935C51.4223 109.734 51.5377 109.48 51.5873 109.175C51.6474 108.805 51.585 108.452 51.4002 108.117C51.214 107.79 50.8915 107.514 50.4325 107.291L49.078 106.638C48.4044 106.314 47.9187 105.926 47.6208 105.473C47.323 105.02 47.2224 104.496 47.319 103.901C47.3974 103.419 47.5912 103.013 47.9005 102.684C48.2005 102.361 48.5886 102.131 49.0647 101.994C49.5328 101.855 50.0523 101.833 50.6232 101.925Z" fill="white"/>
<path d="M39.968 98.7234C40.5595 98.977 41.0204 99.3385 41.3509 99.8081C41.6813 100.278 41.8727 100.803 41.9251 101.384C41.9742 101.972 41.8704 102.565 41.6137 103.164C41.3569 103.763 41.0002 104.244 40.5434 104.607C40.0867 104.969 39.5759 105.189 39.0112 105.266C38.4432 105.35 37.8635 105.266 37.2721 105.012C36.8978 104.852 36.5748 104.634 36.3031 104.358C36.0315 104.082 35.8181 103.773 35.6631 103.432C35.5048 103.098 35.4262 102.754 35.4273 102.4L36.3595 102.334C36.3712 102.721 36.4872 103.081 36.7075 103.414C36.9278 103.748 37.2364 104 37.6332 104.17C38.0299 104.34 38.4326 104.393 38.8412 104.329C39.2391 104.269 39.607 104.103 39.9451 103.832C40.2724 103.564 40.5307 103.21 40.7201 102.768C40.9062 102.334 40.9849 101.902 40.956 101.473C40.9165 101.049 40.7828 100.668 40.555 100.331C40.3198 99.9909 40.0037 99.7358 39.6069 99.5657C39.2102 99.3956 38.8187 99.3474 38.4326 99.4212C38.039 99.4917 37.6913 99.6618 37.3897 99.9313L36.8042 99.1884C37.0566 98.951 37.3599 98.7708 37.7139 98.6478C38.0679 98.5248 38.4386 98.4666 38.8257 98.473C39.2129 98.4795 39.5937 98.563 39.968 98.7234Z" fill="white"/>
<path d="M33.1999 95.2056L29.4196 100.554L28.6713 100.025L29.2919 99.1465L29.3 99.3468C28.995 99.5102 28.6643 99.5757 28.3081 99.5434C27.9453 99.5064 27.5809 99.3586 27.2151 99.1L26.8759 98.8602L27.4048 98.1119L27.8738 98.4433C28.2596 98.716 28.6535 98.8149 29.0556 98.7401C29.4576 98.6652 29.8138 98.4082 30.1242 97.9692L32.4516 94.6767L33.1999 95.2056Z" fill="white"/>
<path d="M24.6994 87.6546C25.1154 88.1131 25.3844 88.6279 25.5065 89.199C25.6226 89.7755 25.5918 90.3478 25.4142 90.9158C25.2251 91.4833 24.8862 91.9887 24.3975 92.432C23.9149 92.8698 23.385 93.1525 22.8079 93.2801C22.2307 93.4076 21.6667 93.3859 21.1156 93.2149C20.5531 93.0434 20.0584 92.7223 19.6315 92.2517C19.2046 91.7811 18.9329 91.2633 18.8162 90.6982C18.6941 90.1271 18.7274 89.5636 18.9159 89.0077C19.099 88.4457 19.4349 87.9431 19.9236 87.4998C20.4183 87.051 20.9599 86.7631 21.5486 86.6361C22.1312 86.5145 22.7007 86.5423 23.2572 86.7193C23.8082 86.8903 24.289 87.2021 24.6994 87.6546ZM24.0207 88.2703C23.7252 87.9445 23.3783 87.7257 22.9801 87.6141C22.5764 87.4964 22.1643 87.4907 21.744 87.5971C21.3181 87.6975 20.9302 87.9064 20.5803 88.2238C20.2304 88.5412 19.9878 88.9042 19.8525 89.3128C19.7118 89.7154 19.6804 90.1233 19.7583 90.5365C19.8307 90.9437 20.0147 91.3102 20.3103 91.636C20.6058 91.9618 20.9554 92.1835 21.3591 92.3012C21.7573 92.4129 22.1663 92.4213 22.5862 92.3264C23.006 92.2315 23.3909 92.0254 23.7408 91.708C24.0907 91.3905 24.3363 91.0248 24.4776 90.6107C24.6189 90.1966 24.6533 89.786 24.5808 89.3788C24.5029 88.9656 24.3162 88.5961 24.0207 88.2703Z" fill="white"/>
<path d="M19.6142 81.0751L11.6564 85.7892L11.1893 85.0008L19.1472 80.2867L19.6142 81.0751Z" fill="white"/>
<path d="M16.5085 74.9919L7.9305 78.4515L7.58774 77.6017L16.1657 74.1421L16.5085 74.9919Z" fill="white"/>
<path d="M13.1619 58.0763C13.17 58.6872 13.0306 59.2389 12.7438 59.7314C12.4489 60.2241 12.0468 60.6164 11.5374 60.9082C11.0198 61.192 10.4351 61.3381 9.78356 61.3467C9.12382 61.3554 8.53556 61.2247 8.01879 60.9545C7.50191 60.6762 7.0937 60.2987 6.79415 59.822C6.48636 59.3373 6.32839 58.7854 6.32024 58.1664C6.31284 57.6044 6.42842 57.1019 6.66697 56.6588C6.90553 56.2158 7.23084 55.8653 7.64291 55.6073L7.9014 55.7506L3.73529 55.8054L3.72323 54.8891L12.9717 54.7673L12.9838 55.6836L11.5177 55.7029L11.6502 55.5546C12.1256 55.7764 12.4966 56.1137 12.7633 56.5664C13.0217 57.011 13.1545 57.5143 13.1619 58.0763ZM12.245 58.0395C12.2392 57.5997 12.1241 57.2061 11.8995 56.8588C11.6749 56.5033 11.3739 56.2262 10.9966 56.0275C10.611 55.8208 10.182 55.7205 9.70957 55.7268C9.23716 55.733 8.81502 55.8444 8.44315 56.0611C8.06302 56.2698 7.76535 56.5548 7.55016 56.916C7.33486 57.2692 7.2301 57.6656 7.23589 58.1055C7.24158 58.5371 7.35668 58.9266 7.5812 59.274C7.80573 59.6213 8.10666 59.8943 8.48401 60.093C8.86125 60.2836 9.29014 60.3757 9.77069 60.3693C10.2431 60.3631 10.6694 60.2598 11.0496 60.0592C11.4216 59.8507 11.7153 59.5739 11.9307 59.2289C12.146 58.8758 12.2508 58.4793 12.245 58.0395Z" fill="white"/>
<path d="M14.4848 46.7163C14.3381 47.3177 14.0624 47.829 13.6579 48.2501C13.2454 48.6694 12.7542 48.9646 12.1842 49.1358C11.6082 49.2971 10.9998 49.2996 10.3588 49.1433C9.72568 48.9889 9.1946 48.7084 8.76553 48.3019C8.33646 47.8954 8.03835 47.4161 7.8712 46.8639C7.69807 46.3018 7.68679 45.7121 7.83734 45.0949C7.9879 44.4776 8.26449 43.9624 8.66713 43.5491C9.07169 43.128 9.55703 42.8397 10.1231 42.6843C10.6912 42.5211 11.2957 42.5176 11.9367 42.6739C12.5856 42.8322 13.1276 43.1195 13.5627 43.5359C13.9898 43.9503 14.286 44.4375 14.4512 44.9977C14.6183 45.5499 14.6295 46.1227 14.4848 46.7163ZM13.5945 46.4991C13.6987 46.0718 13.6855 45.6619 13.5548 45.2695C13.4261 44.8692 13.1999 44.5248 12.8762 44.2362C12.5544 43.9397 12.1641 43.7355 11.7051 43.6236C11.2461 43.5116 10.8095 43.5141 10.3953 43.6311C9.98301 43.7401 9.62757 43.9427 9.32897 44.2388C9.0323 44.5269 8.83185 44.8847 8.72762 45.312C8.62339 45.7394 8.63565 46.1532 8.76438 46.5535C8.89505 46.9459 9.11731 47.2894 9.43115 47.5839C9.74499 47.8785 10.1314 48.0817 10.5904 48.1937C11.0494 48.3056 11.4899 48.3041 11.9121 48.189C12.3342 48.074 12.6936 47.8724 12.9902 47.5842C13.2888 47.2882 13.4903 46.9264 13.5945 46.4991Z" fill="white"/>
<path d="M17.6526 37.5074L10.8375 36.2828L11.3431 35.3756L17.2528 36.5432L17.0743 36.8634L12.9195 32.5474L13.3656 31.7469L19.2217 33.0105L19.0432 33.3307L14.9479 28.908L15.4475 28.0115L20.0736 33.1636L19.6274 33.9641L13.9019 32.7172L14.0268 32.4931L18.0987 36.7069L17.6526 37.5074Z" fill="white"/>
<path d="M23.9885 27.9538L19.2836 23.3981L19.921 22.7398L20.8339 23.6237L20.6543 23.739C20.4634 23.3273 20.4076 22.9048 20.487 22.4715C20.5721 22.0323 20.7846 21.6371 21.1246 21.286C21.4476 20.9525 21.8126 20.7277 22.2198 20.6117C22.6326 20.4898 23.0472 20.4831 23.4637 20.5916C23.8801 20.6886 24.255 20.8986 24.5885 21.2216L27.6432 24.1794L27.0058 24.8377L24.2056 22.1264C23.9189 21.8488 23.6251 21.6663 23.3241 21.5789C23.0288 21.4858 22.7378 21.4818 22.4512 21.5671C22.1643 21.6408 21.9048 21.7977 21.6725 22.0376C21.4401 22.2775 21.2889 22.5449 21.2188 22.8399C21.1428 23.1291 21.1562 23.4256 21.259 23.7292C21.356 24.0272 21.5449 24.3122 21.8258 24.5842L24.6259 27.2955L23.9885 27.9538Z" fill="white"/>
<path d="M39.0123 16.6789L36.6575 11.5621L35.4698 12.1086L35.0867 11.2762L36.2744 10.7296L36.0292 10.1968C35.8385 9.78245 35.7709 9.3921 35.8265 9.02578C35.8787 8.65206 36.0224 8.3214 36.2577 8.03378C36.493 7.74617 36.7845 7.52234 37.1323 7.36228C37.2063 7.32823 37.2948 7.29647 37.3978 7.26699C37.4974 7.23012 37.5802 7.20547 37.6462 7.19302L37.9935 7.94778C37.9349 7.95682 37.8612 7.98177 37.7724 8.02264C37.6802 8.0561 37.6156 8.08135 37.5786 8.09837C37.2235 8.26183 36.9666 8.48315 36.8082 8.76231C36.6497 9.04147 36.6675 9.39194 36.8616 9.81372L37.1068 10.3465L38.5608 9.67733L38.944 10.5098L37.4899 11.1789L39.8448 16.2958L39.0123 16.6789Z" fill="white"/>
<path d="M48.4775 13.6199C47.8734 13.7556 47.2929 13.7358 46.7359 13.5603C46.1771 13.377 45.6944 13.068 45.2879 12.6333C44.8875 12.189 44.615 11.6449 44.4704 11.0012C44.3276 10.3654 44.343 9.76498 44.5166 9.20002C44.6902 8.63505 44.9873 8.15505 45.4078 7.76003C45.8345 7.35528 46.3578 7.08327 46.9777 6.94401C47.5976 6.80475 48.1821 6.82372 48.7312 7.00092C49.2882 7.17634 49.762 7.48315 50.1527 7.92135C50.5513 8.35777 50.8229 8.89786 50.9675 9.54161C51.1139 10.1933 51.0972 10.8065 50.9174 11.3812C50.7358 11.948 50.4308 12.4297 50.0023 12.8265C49.5818 13.2216 49.0735 13.486 48.4775 13.6199ZM48.2766 12.7258C48.7058 12.6294 49.0671 12.4355 49.3607 12.1442C49.6621 11.851 49.8703 11.4954 49.985 11.0772C50.1078 10.6573 50.1174 10.2168 50.0138 9.75585C49.9102 9.2949 49.7141 8.90484 49.4253 8.58567C49.1445 8.26472 48.8051 8.03623 48.4073 7.90021C48.0173 7.7624 47.6077 7.7417 47.1786 7.83811C46.7494 7.93452 46.3841 8.1293 46.0826 8.42244C45.7891 8.71379 45.58 9.06547 45.4555 9.47748C45.331 9.88949 45.3205 10.326 45.4241 10.7869C45.5277 11.2479 45.7247 11.6419 46.0153 11.969C46.3058 12.2961 46.6461 12.5286 47.036 12.6664C47.4339 12.8024 47.8474 12.8222 48.2766 12.7258Z" fill="white"/>
<path d="M56.7045 12.4234L56.6899 5.87436L57.6063 5.87232L57.6087 6.94754L57.4861 6.78897C57.6402 6.47909 57.8718 6.23421 58.181 6.05432C58.4982 5.8744 58.8809 5.78395 59.3289 5.78295L59.7443 5.78202L59.7464 6.6984L59.1721 6.69968C58.6996 6.70074 58.3212 6.8482 58.0368 7.14208C57.7523 7.43595 57.6107 7.8517 57.6119 8.3893L57.6209 12.4214L56.7045 12.4234Z" fill="white"/>
<path d="M73.7776 15.1524L74.2684 8.24565L75.2243 8.65163L74.6937 14.6521L74.3563 14.5088L78.2046 9.91734L79.048 10.2756L78.4162 16.233L78.0788 16.0897L82.0395 11.546L82.9842 11.9472L78.3548 17.0964L77.5114 16.7382L78.1405 10.9123L78.3766 11.0126L74.6211 15.5107L73.7776 15.1524Z" fill="white"/>
<path d="M86.2757 22.4352C85.7907 22.0503 85.4416 21.5861 85.2284 21.0425C85.0201 20.4924 84.9575 19.9228 85.0404 19.3334C85.1348 18.7428 85.3871 18.1891 85.7972 17.6722C86.2023 17.1618 86.6792 16.7968 87.2279 16.5771C87.7767 16.3574 88.3368 16.2872 88.9083 16.3664C89.4912 16.4442 90.0315 16.6807 90.5292 17.0756C91.0268 17.4706 91.3791 17.9374 91.586 18.476C91.7993 19.0196 91.8581 19.581 91.7624 20.1602C91.6731 20.7445 91.4234 21.295 91.0132 21.8118C90.598 22.335 90.1103 22.7071 89.5502 22.9281C88.9951 23.1427 88.4286 23.2079 87.8507 23.1236C87.2792 23.0444 86.7542 22.815 86.2757 22.4352ZM86.8453 21.7174C87.1899 21.9908 87.5677 22.1503 87.9788 22.1957C88.3962 22.2463 88.8037 22.1849 89.2012 22.0116C89.6051 21.8434 89.9539 21.5742 90.2476 21.2042C90.5413 20.8341 90.7216 20.4365 90.7887 20.0114C90.8621 19.5913 90.8268 19.1837 90.6828 18.7886C90.5451 18.3986 90.304 18.0669 89.9595 17.7934C89.615 17.52 89.234 17.358 88.8165 17.3075C88.4054 17.262 88.0005 17.3202 87.6017 17.482C87.2028 17.6439 86.8566 17.9098 86.5629 18.2799C86.2692 18.65 86.0863 19.0508 86.0142 19.4823C85.9421 19.9138 85.9748 20.3246 86.1125 20.7146C86.2565 21.1097 86.5008 21.4439 86.8453 21.7174Z" fill="white"/>
<path d="M92.3716 28.0864L97.459 23.9623L98.0361 24.6741L97.2008 25.3512L97.2473 25.1563C97.5852 25.0816 97.9212 25.108 98.2553 25.2356C98.5946 25.3696 98.9053 25.6105 99.1874 25.9586L99.449 26.2813L98.7372 26.8583L98.3755 26.4122C98.078 26.0452 97.7256 25.8433 97.3183 25.8065C96.9109 25.7697 96.4985 25.9206 96.0808 26.2591L92.9487 28.7982L92.3716 28.0864Z" fill="white"/>
<path d="M97.2362 34.8703L105.443 30.6051L105.866 31.4182L100.12 34.4044L99.9938 34.0293L104.986 35.5798L105.532 36.6315L102.018 35.5661L99.828 39.8575L99.3209 38.8817L101.33 34.8774L101.557 35.4203L98.9816 34.6517L99.7946 34.5735L97.6588 35.6834L97.2362 34.8703Z" fill="white"/>
<path d="M103.093 53.8054C103.024 53.223 103.141 52.754 103.444 52.3984C103.746 52.0428 104.213 51.8277 104.844 51.7533L108.545 51.3164L108.403 50.1151L109.313 50.0077L109.349 50.311C109.382 50.5861 109.496 50.794 109.693 50.9348C109.898 51.0746 110.139 51.1283 110.414 51.0958L110.96 51.0314L111.067 51.9414L109.562 52.119L109.731 53.5509L108.821 53.6583L108.652 52.2265L104.951 52.6633C104.733 52.6891 104.543 52.7444 104.381 52.8291C104.226 52.913 104.11 53.0374 104.031 53.2026C103.953 53.3758 103.93 53.5959 103.961 53.8629C103.969 53.9276 103.982 54.004 104.001 54.092C104.019 54.18 104.036 54.2559 104.052 54.3197L103.239 54.4157C103.203 54.3215 103.174 54.2142 103.152 54.0938C103.121 53.9743 103.102 53.8782 103.093 53.8054Z" fill="white"/>
<path d="M102.94 61.9233C102.997 61.3069 103.195 60.7608 103.534 60.2852C103.881 59.8103 104.324 59.4465 104.863 59.194C105.409 58.9504 106.011 58.8591 106.667 58.9203C107.316 58.9807 107.883 59.1807 108.366 59.5203C108.85 59.8598 109.215 60.2905 109.461 60.8125C109.714 61.3433 109.811 61.925 109.753 62.5576C109.694 63.1902 109.495 63.7403 109.157 64.2079C108.818 64.6835 108.38 65.0395 107.843 65.2758C107.305 65.5202 106.707 65.6118 106.05 65.5507C105.385 65.4887 104.807 65.2836 104.316 64.9351C103.833 64.5875 103.469 64.1486 103.224 63.6186C102.978 63.0967 102.883 62.5316 102.94 61.9233ZM103.852 62.0082C103.811 62.4462 103.884 62.8498 104.071 63.2189C104.256 63.5961 104.531 63.9039 104.893 64.1422C105.254 64.3885 105.67 64.5336 106.141 64.5774C106.611 64.6212 107.043 64.555 107.435 64.3789C107.827 64.2109 108.15 63.9586 108.402 63.6221C108.653 63.2938 108.799 62.9106 108.84 62.4726C108.881 62.0347 108.808 61.6271 108.623 61.2498C108.436 60.8807 108.166 60.5733 107.813 60.3277C107.459 60.0821 107.047 59.9374 106.577 59.8936C106.106 59.8498 105.671 59.9156 105.27 60.0909C104.869 60.2663 104.543 60.5182 104.292 60.8466C104.039 61.183 103.893 61.5703 103.852 62.0082Z" fill="white"/>
<path d="M98.0283 72.1431C98.1799 71.7215 98.3856 71.354 98.6455 71.0406C98.9026 70.7349 99.193 70.4931 99.5167 70.3152C99.8299 70.1422 100.161 70.0405 100.509 70.01L100.649 70.9563C100.314 70.9742 99.9826 71.1017 99.655 71.3388C99.3273 71.5758 99.0753 71.9396 98.8989 72.4302C98.7638 72.8058 98.7125 73.1769 98.7452 73.5435C98.7778 73.9102 98.9014 74.2403 99.1161 74.5339C99.3308 74.8275 99.6451 75.0488 100.059 75.1976L101.427 75.6897L101.251 75.7822C100.884 75.4077 100.653 74.9655 100.56 74.4558C100.474 73.9487 100.52 73.4461 100.699 72.9479C100.906 72.373 101.23 71.9052 101.671 71.5446C102.113 71.1839 102.615 70.9535 103.18 70.8534C103.748 70.7637 104.32 70.8223 104.895 71.029C105.478 71.2385 105.956 71.5577 106.33 71.9864C106.701 72.4229 106.943 72.9168 107.056 73.4683C107.167 74.0274 107.117 74.5983 106.908 75.1808C106.729 75.679 106.451 76.0899 106.075 76.4134C105.696 76.7446 105.269 76.9588 104.792 77.0558L104.6 76.831L105.98 77.3272L105.67 78.1895L99.7489 76.06C99.22 75.8697 98.7941 75.5737 98.4711 75.1719C98.1378 74.775 97.9322 74.3116 97.8545 73.7816C97.7664 73.2564 97.8243 72.7103 98.0283 72.1431ZM101.545 73.304C101.402 73.7026 101.372 74.0987 101.455 74.4923C101.546 74.8886 101.726 75.2433 101.995 75.5562C102.268 75.8795 102.608 76.1142 103.014 76.2603C103.42 76.4065 103.828 76.4405 104.237 76.3625C104.65 76.2949 105.015 76.136 105.33 75.8858C105.653 75.6383 105.886 75.3152 106.029 74.9167C106.175 74.5104 106.204 74.1053 106.116 73.7013C106.035 73.3 105.86 72.9429 105.592 72.63C105.321 72.3247 104.978 72.0977 104.564 71.9488C104.158 71.8027 103.75 71.7596 103.338 71.8195C102.932 71.8898 102.568 72.0488 102.245 72.2963C101.927 72.5542 101.694 72.8901 101.545 73.304Z" fill="white"/>
<path d="M95.2936 82.9718C95.6331 82.4639 96.0628 82.0849 96.5827 81.8348C97.1049 81.596 97.6619 81.5029 98.2537 81.5556C98.8456 81.6083 99.4157 81.818 99.9643 82.1846C100.513 82.5513 100.92 82.9901 101.186 83.501C101.459 84.0164 101.586 84.552 101.567 85.1077C101.544 85.6702 101.367 86.1987 101.036 86.693C100.774 87.0858 100.466 87.3848 100.113 87.5899C99.7631 87.8064 99.3901 87.9392 98.9947 87.9884C98.6061 88.0421 98.2175 88.0225 97.829 87.9294C97.4474 87.8408 97.094 87.6879 96.7689 87.4706C96.7012 87.4253 96.6256 87.3699 96.5421 87.3042C96.4653 87.2431 96.3875 87.1764 96.3085 87.104L99.3844 82.5025L100.095 82.9778L97.3115 87.1425L97.2512 86.5731C97.583 86.8831 97.9442 87.0608 98.335 87.1065C98.728 87.1635 99.0997 87.1131 99.4501 86.9554C99.8072 86.8022 100.099 86.5563 100.325 86.2177C100.552 85.8791 100.674 85.5054 100.693 85.0965C100.707 84.6944 100.609 84.3057 100.399 83.9304C100.196 83.5596 99.8669 83.2463 99.4109 82.9905C99.0001 82.6669 98.5756 82.4811 98.1374 82.4331C97.7014 82.3965 97.2958 82.4683 96.9206 82.6485C96.5408 82.8356 96.2355 83.1018 96.0046 83.4472C95.7375 83.8467 95.6083 84.2453 95.6168 84.6429C95.6254 85.0405 95.7153 85.4191 95.8865 85.7785L95.1066 86.1977C94.9352 85.9264 94.8193 85.6089 94.7587 85.2451C94.705 84.8858 94.7178 84.5074 94.7974 84.1099C94.8792 83.7236 95.0446 83.3443 95.2936 82.9718Z" fill="white"/>
<path d="M88.7469 90.6957C89.1639 90.2834 89.6057 90.0872 90.0721 90.1072C90.5386 90.1271 90.9951 90.363 91.4418 90.8149L94.0617 93.4651L94.9219 92.6147L95.5662 93.2664L95.3489 93.4812C95.152 93.6759 95.0586 93.8942 95.0687 94.1362C95.0845 94.384 95.1898 94.6063 95.3845 94.8033L95.7711 95.1943L95.1194 95.8385L94.0542 94.7611L93.0289 95.7747L92.3847 95.123L93.41 94.1094L90.7901 91.4591C90.6355 91.3027 90.4749 91.1866 90.3083 91.1108C90.1474 91.0407 89.9776 91.0253 89.7988 91.0646C89.6142 91.1096 89.4263 91.2266 89.2352 91.4156C89.1888 91.4614 89.1367 91.5187 89.0787 91.5875C89.0207 91.6563 88.9714 91.7165 88.9308 91.7681L88.3552 91.1859C88.4076 91.0998 88.4743 91.0109 88.5555 90.9192C88.6309 90.8217 88.6947 90.7472 88.7469 90.6957Z" fill="white"/>
<path d="M84.8982 94.0167L89.9494 101.765L89.1817 102.265L87.0131 98.9389L87.2138 98.8664C87.3086 99.3102 87.2693 99.7345 87.0957 100.139C86.9152 100.549 86.6203 100.887 86.2109 101.154C85.8219 101.407 85.4161 101.545 84.9934 101.568C84.5638 101.595 84.158 101.51 83.776 101.312C83.3916 101.125 83.0726 100.837 82.819 100.448L80.4969 96.8859L81.2646 96.3855L83.3932 99.6506C83.6111 99.9849 83.8572 100.228 84.1312 100.38C84.4053 100.532 84.6916 100.598 84.99 100.579C85.286 100.57 85.5705 100.477 85.8435 100.299C86.1164 100.121 86.3198 99.8964 86.4537 99.6244C86.5919 99.3593 86.6481 99.065 86.622 98.7417C86.5936 98.4296 86.4726 98.1098 86.2591 97.7822L84.1305 94.5171L84.8982 94.0167Z" fill="white"/>
<path d="M72.7925 100.114C73.368 99.9091 73.939 99.8613 74.5054 99.9709C75.067 100.091 75.5695 100.349 76.013 100.744C76.4564 101.139 76.7888 101.648 77.0102 102.269C77.2316 102.891 77.2965 103.486 77.2051 104.055C77.1163 104.631 76.8986 105.137 76.552 105.571C76.1976 106.009 75.7404 106.327 75.1802 106.527C74.7351 106.685 74.3099 106.742 73.9045 106.696C73.4941 106.661 73.1156 106.545 72.7689 106.348C72.425 106.159 72.1249 105.912 71.8688 105.605C71.6153 105.306 71.423 104.973 71.2918 104.604C71.2645 104.528 71.2369 104.438 71.2091 104.336C71.1839 104.241 71.1613 104.141 71.1411 104.035L76.3552 102.178L76.6422 102.984L71.923 104.665L72.2144 104.172C72.2956 104.619 72.4794 104.977 72.7658 105.247C73.0471 105.527 73.3755 105.708 73.7507 105.791C74.1287 105.881 74.5096 105.858 74.8932 105.721C75.2769 105.585 75.5982 105.358 75.8571 105.041C76.1083 104.726 76.2618 104.356 76.3175 103.93C76.376 103.511 76.2986 103.063 76.0853 102.586C75.9488 102.081 75.719 101.679 75.396 101.379C75.068 101.089 74.6997 100.905 74.291 100.825C73.8746 100.749 73.4708 100.78 73.0794 100.92C72.6267 101.081 72.2851 101.324 72.0547 101.648C71.8243 101.972 71.6706 102.329 71.5935 102.72L70.7175 102.591C70.7419 102.271 70.8383 101.947 71.0068 101.619C71.1781 101.299 71.4142 101.003 71.7153 100.731C72.0114 100.47 72.3704 100.264 72.7925 100.114Z" fill="white"/>
<path d="M65.4269 102.137L66.2876 108.63L65.3791 108.75L65.2378 107.684L65.3798 107.826C65.2671 108.153 65.069 108.426 64.7858 108.644C64.4944 108.863 64.1266 109.002 63.6825 109.061L63.2707 109.116L63.1503 108.207L63.7195 108.132C64.1879 108.07 64.5441 107.875 64.7882 107.547C65.0323 107.218 65.119 106.788 65.0483 106.255L64.5184 102.258L65.4269 102.137Z" fill="white"/>
<path d="M52.8741 54.652C52.8705 53.0318 53.5106 51.4765 54.6537 50.3283C55.7968 49.18 57.3493 48.533 58.9695 48.5293C60.5897 48.5257 62.1449 49.1659 63.2932 50.309C64.4414 51.4521 65.0885 53.0045 65.0921 54.6247L65.1057 60.7337C65.1093 62.3539 64.4691 63.9092 63.326 65.0574C62.1829 66.2056 60.6305 66.8527 59.0103 66.8563C57.3901 66.8599 55.8348 66.2198 54.6866 65.0767C53.5384 63.9336 52.8913 62.3811 52.8877 60.7609L52.8741 54.652Z" stroke="white" stroke-width="1.5273" stroke-linejoin="round"/>
<path d="M58.9789 52.6025L58.988 56.6744" stroke="white" stroke-width="1.5273" stroke-linecap="round" stroke-linejoin="round"/>
</svg>
