<svg width="62" height="62" viewBox="0 0 62 62" fill="none" xmlns="http://www.w3.org/2000/svg">
<rect x="0.761459" y="0.685791" width="60" height="60" rx="30" transform="rotate(-0.127773 0.761459 0.685791)" fill="white" fill-opacity="0.4"/>
<rect x="0.761459" y="0.685791" width="60" height="60" rx="30" transform="rotate(-0.127773 0.761459 0.685791)" stroke="url(#paint0_linear_2_1125)"/>
<path d="M30.2896 14.1199C27.0262 14.1272 23.8382 15.102 21.1288 16.9211C18.4195 18.7402 16.3104 21.3219 15.0683 24.3397C13.8262 27.3574 13.5068 30.6757 14.1506 33.875C14.7944 37.0743 16.3724 40.0107 18.6851 42.3132C20.9978 44.6156 23.9413 46.1805 27.1434 46.81C30.3456 47.4395 33.6624 47.1054 36.6746 45.8498C39.6868 44.5942 42.259 42.4736 44.066 39.7562C45.873 37.0388 46.8336 33.8465 46.8263 30.5831C46.8116 26.2086 45.0623 22.0185 41.9621 18.9321C38.8619 15.8458 34.6641 14.1152 30.2896 14.1199ZM44.0782 36.5892L39.4372 36.5996C39.8138 34.8734 40.0211 33.1146 40.0562 31.3482L45.2897 31.3365C45.2091 33.1466 44.7985 34.9267 44.0782 36.5892ZM15.3663 31.4033L20.5998 31.3916C20.6428 33.1578 20.858 34.9157 21.2423 36.6402L16.6013 36.6505C15.8735 34.9912 15.455 33.213 15.3663 31.4033ZM16.5745 24.6506L21.2155 24.6402C20.8389 26.3664 20.6316 28.1252 20.5965 29.8916L15.363 29.9033C15.4436 28.0932 15.8542 26.3131 16.5745 24.6506ZM31.0596 23.1182L31.043 15.6873C33.7733 16.1312 36.1235 19.0029 37.4436 23.104L31.0596 23.1182ZM37.8692 24.6031C38.2796 26.324 38.5098 28.083 38.5559 29.8515L31.0747 29.8682L31.063 24.6182L37.8692 24.6031ZM29.5431 15.6906L29.5596 23.1216L23.1756 23.1358C24.4775 19.0289 26.8148 16.1467 29.5431 15.6906ZM29.563 24.6216L29.5747 29.8716L22.0957 29.8883C22.1339 28.1195 22.3563 26.3595 22.759 24.6368L29.563 24.6216ZM22.099 31.3883L29.578 31.3716L29.5897 36.6216L22.7835 36.6367C22.3738 34.9157 22.1444 33.1567 22.099 31.3883ZM29.5931 38.1216L29.6096 45.5525C26.8794 45.1086 24.5292 42.2369 23.2091 38.1358L29.5931 38.1216ZM31.1096 45.5492L31.0931 38.1182L37.4771 38.104C36.1752 42.2109 33.8379 45.0931 31.1096 45.5492ZM31.0897 36.6182L31.078 31.3682L38.557 31.3515C38.5188 33.1203 38.2964 34.8803 37.8937 36.603L31.0897 36.6182ZM40.0529 29.8482C40.0099 28.082 39.7947 26.3242 39.4104 24.5996L44.0514 24.5893C44.7792 26.2486 45.1977 28.0268 45.2864 29.8365L40.0529 29.8482ZM43.2801 23.091L39.0193 23.1005C38.363 20.6581 37.1339 18.4073 35.4339 16.5347C38.7339 17.7383 41.5092 20.0575 43.2801 23.091ZM25.156 16.5576C23.4644 18.4378 22.2454 20.694 21.5999 23.1393L17.3391 23.1488C19.0964 20.1075 21.8615 17.7759 25.156 16.5576ZM17.3726 38.1488L21.6333 38.1393C22.2897 40.5817 23.5188 42.8325 25.2187 44.7051C21.9188 43.5015 19.1434 41.1823 17.3726 38.1488ZM35.4967 44.6822C37.1883 42.802 38.4073 40.5458 39.0528 38.1005L43.3135 38.091C41.5562 41.1323 38.7912 43.4639 35.4967 44.6822Z" fill="white"/>
<defs>
<linearGradient id="paint0_linear_2_1125" x1="1.25951" y1="0.685791" x2="61.2595" y2="60.6858" gradientUnits="userSpaceOnUse">
<stop offset="0.138693" stop-color="white"/>
<stop offset="0.414413" stop-color="white" stop-opacity="0"/>
</linearGradient>
</defs>
</svg>
